<?xml version="1.0" standalone="no"?><!DOCTYPE svg PUBLIC "-//W3C//DTD SVG 1.1//EN" "http://www.w3.org/Graphics/SVG/1.1/DTD/svg11.dtd"><svg t="1760146523114" class="icon" viewBox="0 0 1024 1024" version="1.1" xmlns="http://www.w3.org/2000/svg" p-id="8153" xmlns:xlink="http://www.w3.org/1999/xlink" width="200" height="200"><path d="M240.477091 234.146909Q128 346.624 128 505.716364q0 159.045818 112.477091 271.522909L191.069091 826.577455Q58.181818 693.666909 58.181818 505.716364q0-187.997091 132.910546-320.930909l49.384727 49.384727zM832.907636 184.785455Q965.818182 317.672727 965.818182 505.693091q0 187.973818-132.910546 320.884364l-49.384727-49.361455Q896 664.738909 896 505.693091q0-159.069091-112.477091-271.546182L832.930909 184.785455zM339.2 327.214545Q267.636364 398.824727 267.636364 500.037818q0 101.236364 71.563636 172.8l-49.338182 49.338182Q197.818182 630.202182 197.818182 500.061091q0-130.141091 92.020363-222.161455l49.361455 49.361455z m394.938182-49.361454q92.043636 92.020364 92.043636 222.161454 0 130.141091-92.020363 222.161455l-49.361455-49.361455q71.563636-71.586909 71.563636-172.8 0-101.236364-71.563636-172.8l49.338182-49.361454zM512 663.272727q72.308364 0 123.415273-51.106909Q686.545455 561.035636 686.545455 488.727273q0-72.308364-51.130182-123.438546-51.106909-51.106909-123.415273-51.106909-72.308364 0-123.415273 51.106909-51.130182 51.130182-51.130182 123.438546 0 72.285091 51.130182 123.415272Q439.691636 663.272727 512 663.272727z m104.727273-174.545454q0 43.403636-30.673455 74.077091Q555.380364 593.454545 512 593.454545q-43.380364 0-74.053818-30.673454Q407.272727 532.130909 407.272727 488.727273q0-43.380364 30.673455-74.053818Q468.619636 384 512 384q43.380364 0 74.053818 30.673455Q616.727273 445.370182 616.727273 488.727273z" fill="#000000" p-id="8154"></path></svg>