<?xml version="1.0" standalone="no"?><!DOCTYPE svg PUBLIC "-//W3C//DTD SVG 1.1//EN" "http://www.w3.org/Graphics/SVG/1.1/DTD/svg11.dtd"><svg t="1758986050733" class="icon" viewBox="0 0 1025 1024" version="1.1" xmlns="http://www.w3.org/2000/svg" p-id="10080" xmlns:xlink="http://www.w3.org/1999/xlink" width="200.1953125" height="200"><path d="M208.23226 1.791299h609.574197C931.569989 1.791299 1024.122711 94.345019 1024.122711 208.108551v609.574197c0 113.763532-92.55372 206.317252-206.317252 206.317252H208.23226C94.468728 1023.999002 1.915008 931.44628 1.915008 817.682748V208.108551C1.915008 94.345019 94.468728 1.791299 208.23226 1.791299z m609.574197 984.696473c93.079798 0 168.804026-75.725226 168.804026-168.804025V208.108551c0-93.079798-75.725226-168.804026-168.804026-168.804026H208.23226c-93.079798 0-168.804026 75.725226-168.804026 168.804026v609.574197c0 93.079798 75.725226 168.804026 168.804026 168.804026z" p-id="10081"></path><path d="M656.95349 161.637032L431.923049 202.856759a13.731923 13.731923 0 0 0-11.410992 12.449172l-46.169049 409.581856a15.977985 15.977985 0 0 0 18.605378 17.498319l165.365056-28.639784h5.946573l3.486886-0.512102a10.818032 10.818032 0 0 0 1.405536-0.065884 8.94831 8.94831 0 0 0 7.544771-4.853491l40.863352-92.437923a3.194399 3.194399 0 0 1 6.106294 1.5972l-10.230063 100.613588a6.388798 6.388798 0 0 0 4.858481 6.865962L799.419696 667.704714a15.977985 15.977985 0 0 0 19.565694-13.826757l41.694894-387.453655a13.738911 13.738911 0 0 0-7.929097-13.92159L665.389699 162.594354c-1.503364-0.989265-3.482893-0.989265-5.432475-0.989266a3.138497 3.138497 0 0 0-3.007727 0zM524.61353 360.232822a15.971995 15.971995 0 0 1-14.003447-17.721927l4.185661-35.345027a15.98098 15.98098 0 0 1 17.745885-13.983482l35.682436 4.212614a15.971995 15.971995 0 0 1 14.002449 17.721927l-4.192649 35.345027a15.971995 15.971995 0 0 1-17.741892 13.983482l-35.682436-4.18067z m177.930024 20.881388a15.971995 15.971995 0 0 1-14.006441-17.720929l4.222596-35.856131a15.982976 15.982976 0 0 1 17.745885-13.983482l35.679441 4.212614a15.971995 15.971995 0 0 1 14.006442 17.688984l-4.221598 35.889074a15.971995 15.971995 0 0 1-17.74289 13.983482z m-191.325537 90.454401a15.971995 15.971995 0 0 1-13.975496-17.721927l4.155714-35.376972a15.985971 15.985971 0 0 1 17.779825-13.983482l35.52072 4.150723a15.971995 15.971995 0 0 1 14.009436 17.878652l-4.449199 35.37797a15.971995 15.971995 0 0 1-17.74289 13.855706z m178.409185 21.362544a15.971995 15.971995 0 0 1-13.975496-17.721928l4.218603-35.856131a15.984973 15.984973 0 0 1 17.781822-13.985478l35.170334 4.15172a15.964009 15.964009 0 0 1 13.973499 17.717934l-4.218603 35.856132a15.978983 15.978983 0 0 1-17.745885 14.016424l-35.170334-4.179672zM497.851453 581.848251a15.964009 15.964009 0 0 1-14.002448-17.717934l4.192648-35.376972a15.98098 15.98098 0 0 1 17.742891-13.988473l35.682436 4.216607a15.971995 15.971995 0 0 1 14.002448 17.718932l-4.186659 35.376972a15.984973 15.984973 0 0 1-17.778827 13.987475z m177.930025 22.351809a15.971995 15.971995 0 0 1-14.002449-17.688985l4.218604-35.890071a15.982976 15.982976 0 0 1 17.745885-13.983482l35.650492 4.212613a15.971995 15.971995 0 0 1 14.002448 17.720929l-4.192649 35.856132a15.977985 15.977985 0 0 1-17.774834 13.98448zM297.605556 312.179078a9.559239 9.559239 0 0 0-4.954313 1.468425L168.723533 377.248987a14.518544 14.518544 0 0 0-7.448939 13.92159l31.270172 268.39341a15.982976 15.982976 0 0 0 18.63832 13.888649l30.95173-5.430479a15.960016 15.960016 0 0 0 13.106021-17.528267l-1.917638-17.016164a15.971995 15.971995 0 0 1 13.908613-17.654046l16.945289-2.108304a15.98098 15.98098 0 0 1 17.841717 13.920593l1.503364 12.354338a15.98098 15.98098 0 0 0 18.418706 13.826757l20.271457-3.289233 0.958319-8.430219 14.895882-131.189977v-0.478161l5.436468-45.21073a10.870939 10.870939 0 0 1-12.246527-9.420482l-2.6234-21.262719a15.971995 15.971995 0 0 1 14.102273-17.84571l6.235068-0.698775 9.91262-86.94156-76.319185-17.404484a8.792583 8.792583 0 0 0-3.486887-0.47916c-0.47916 0.95832-0.95832 0.95832-1.470421 0.95832z m-66.505392 136.0814a15.966006 15.966006 0 0 1 13.940557-17.783818l16.850455-2.075361a15.977985 15.977985 0 0 1 17.807777 13.92159l2.078356 16.983222a15.965008 15.965008 0 0 1-13.908613 17.783819l-16.846462 2.073365a15.978983 15.978983 0 0 1-17.808775-13.917598l-2.077358-16.987215zM242.995308 540.661466a15.966006 15.966006 0 0 1 13.937562-17.750876l17.169895-2.107305a15.985971 15.985971 0 0 1 17.841717 14.110259l1.91664 17.46937a15.971995 15.971995 0 0 1-13.940558 17.594151l-16.976234 2.100318a15.984973 15.984973 0 0 1-17.838722-13.952536z m319.792289 100.446881L173.201681 708.668889c-6.972774 1.502366-11.927088 6.961793-11.927087 13.922588v127.172022a13.875671 13.875671 0 0 0 13.906616 13.925584h233.50059a6.422739 6.422739 0 0 0 4.185661-1.564258l122.265624-105.753576a6.377817 6.377817 0 0 0-0.640876-10.121253l-28.004897-18.838969a6.375821 6.375821 0 0 1-0.450211-10.281972l61.25959-49.266618a6.395786 6.395786 0 0 0 2.395799-4.980268v-21.773822l-0.991262-0.512102h-2.781123a18.480597 18.480597 0 0 0-3.1944 0.479159z m40.992126 73.659847a6.380812 6.380812 0 0 0 3.421002 10.217086l37.406413 9.196875a6.388798 6.388798 0 0 1 3.548778 10.02642l-82.169927 109.259429a6.388798 6.388798 0 0 0 5.118026 10.221079h279.669639a13.862694 13.862694 0 0 0 13.875671-13.921591V722.591477a13.376546 13.376546 0 0 0-10.903882-13.410486l-202.295303-47.797194a6.388798 6.388798 0 0 0-6.425734 2.236079z" p-id="10082"></path></svg>