<?xml version="1.0" standalone="no"?><!DOCTYPE svg PUBLIC "-//W3C//DTD SVG 1.1//EN" "http://www.w3.org/Graphics/SVG/1.1/DTD/svg11.dtd"><svg t="1758985890123" class="icon" viewBox="0 0 1024 1024" version="1.1" xmlns="http://www.w3.org/2000/svg" p-id="7140" xmlns:xlink="http://www.w3.org/1999/xlink" width="200" height="200"><path d="M148.48 440.32h276.48a15.36 15.36 0 0 0 0-30.72H148.48a15.36 15.36 0 0 0 0 30.72zM855.51104 163.84a15.36 15.36 0 0 0 0-30.72h-0.18432a15.29856 15.29856 0 0 0-15.2576 15.36c0 8.47872 6.9632 15.36 15.44192 15.36zM164.31104 148.48a15.36 15.36 0 0 0-15.36-15.36h-0.16384a15.29856 15.29856 0 0 0-15.27808 15.36 15.42144 15.42144 0 0 0 30.80192 0zM409.6 348.16c16.93696 0 30.72-13.78304 30.72-30.72v-61.44c0-16.93696-13.78304-30.72-30.72-30.72h-61.44c-16.93696 0-30.72 13.78304-30.72 30.72v61.44c0 16.93696 13.78304 30.72 30.72 30.72h61.44z m-61.44-92.16h61.44v61.44h-61.44v-61.44z" fill="#373D41" p-id="7141"></path><path d="M885.76 40.96H117.76C78.29504 40.96 40.96 78.29504 40.96 117.76v706.56a15.36 15.36 0 0 0 30.72 0V117.76c0-22.40512 23.67488-46.08 46.08-46.08h768c22.40512 0 46.08 23.67488 46.08 46.08v768c0 22.40512-23.67488 46.08-46.08 46.08H117.76c-22.40512 0-46.08-23.67488-46.08-46.08a15.36 15.36 0 0 0-30.72 0C40.96 925.24544 78.29504 962.56 117.76 962.56h768c39.48544 0 76.8-37.31456 76.8-76.8V117.76C962.56 78.29504 925.24544 40.96 885.76 40.96z" fill="#373D41" p-id="7142"></path><path d="M133.12 317.44c0 16.93696 13.78304 30.72 30.72 30.72h61.44c16.93696 0 30.72-13.78304 30.72-30.72v-61.44c0-16.93696-13.78304-30.72-30.72-30.72H163.84c-16.93696 0-30.72 13.78304-30.72 30.72v61.44z m30.72-61.44h61.44v61.44H163.84v-61.44zM240.64 593.92a15.36 15.36 0 0 0 0-30.72H225.28v-46.08a15.36 15.36 0 0 0-30.72 0v276.48a15.36 15.36 0 0 0 30.72 0V778.24h15.36a15.36 15.36 0 0 0 0-30.72H225.28V716.8h15.36a15.36 15.36 0 0 0 0-30.72H225.28V655.36h15.36a15.36 15.36 0 0 0 0-30.72H225.28V593.92h15.36zM855.51104 870.4a15.36 15.36 0 0 0 0-30.72h-0.18432a15.29856 15.29856 0 0 0-15.2576 15.36c0 8.47872 6.9632 15.36 15.44192 15.36zM578.56 194.56a15.36 15.36 0 0 0-15.36 15.36V225.28c-16.93696 0-30.72 13.78304-30.72 30.72v15.36h-15.36a15.36 15.36 0 0 0 0 30.72H532.48v15.36c0 16.93696 13.78304 30.72 30.72 30.72v15.36a15.36 15.36 0 1 0 30.72 0V348.16h30.72v15.36a15.36 15.36 0 1 0 30.72 0V348.16h30.72v15.36a15.36 15.36 0 1 0 30.72 0V348.16h30.72v15.36a15.36 15.36 0 1 0 30.72 0V348.16c16.93696 0 30.72-13.78304 30.72-30.72v-15.36h15.36a15.36 15.36 0 1 0 0-30.72h-15.36v-15.36c0-16.93696-13.78304-30.72-30.72-30.72v-15.36a15.36 15.36 0 1 0-30.72 0V225.28H716.8v-15.36a15.36 15.36 0 1 0-30.72 0V225.28H655.36v-15.36a15.36 15.36 0 1 0-30.72 0V225.28H593.92v-15.36a15.36 15.36 0 0 0-15.36-15.36z m199.68 61.44v61.44H563.2v-61.44H778.24zM148.7872 839.68a15.29856 15.29856 0 0 0-15.27808 15.36 15.42144 15.42144 0 0 0 30.78144 0 15.36 15.36 0 0 0-15.36-15.36h-0.14336zM481.93536 670.06464a15.33952 15.33952 0 0 0 17.24416-6.18496c0.26624-0.4096 26.76736-39.23968 79.38048-39.23968 31.49824 0 47.9232 14.1312 55.82848 24.576-16.75264 11.264-40.46848 35.51232-40.46848 82.944 0 30.53568 9.97376 54.35392 21.27872 71.49568a153.2928 153.2928 0 0 1-105.7792-100.20864 15.36 15.36 0 1 0-29.184 9.58464A183.99232 183.99232 0 0 0 655.36 839.68a15.38048 15.38048 0 0 0 8.51968-28.13952c-0.4096-0.26624-39.23968-26.76736-39.23968-79.38048 0-31.49824 14.1312-47.9232 24.576-55.808 11.264 16.73216 35.51232 40.448 82.944 40.448a128.22528 128.22528 0 0 0 71.49568-21.27872 153.21088 153.21088 0 0 1-100.20864 105.7792 15.36 15.36 0 1 0 9.58464 29.16352A183.97184 183.97184 0 0 0 839.68 655.36a15.36 15.36 0 0 0-28.13952-8.51968c-0.26624 0.4096-26.76736 39.23968-79.38048 39.23968-31.49824 0-47.9232-14.1312-55.82848-24.576 16.75264-11.264 40.46848-35.51232 40.46848-82.944a128.22528 128.22528 0 0 0-21.27872-71.49568 153.25184 153.25184 0 0 1 105.7792 100.22912 15.36 15.36 0 0 0 29.184-9.6256A184.0128 184.0128 0 0 0 655.36 471.04a15.38048 15.38048 0 0 0-8.54016 28.13952c0.4096 0.26624 39.23968 26.76736 39.23968 79.38048 0 31.49824-14.1312 47.9232-24.576 55.82848-11.264-16.75264-35.51232-40.46848-82.944-40.46848a128.22528 128.22528 0 0 0-71.49568 21.27872 153.25184 153.25184 0 0 1 100.22912-105.7792 15.36 15.36 0 1 0-9.6256-29.184A183.97184 183.97184 0 0 0 471.04 655.36c0 6.7584 4.44416 12.73856 10.89536 14.70464zM286.72 517.12v276.48a15.36 15.36 0 0 0 30.72 0v-276.48a15.36 15.36 0 0 0-30.72 0zM348.16 517.12v276.48a15.36 15.36 0 0 0 30.72 0v-276.48a15.36 15.36 0 0 0-30.72 0z" fill="#373D41" p-id="7143"></path></svg>