<?xml version="1.0" standalone="no"?><!DOCTYPE svg PUBLIC "-//W3C//DTD SVG 1.1//EN" "http://www.w3.org/Graphics/SVG/1.1/DTD/svg11.dtd"><svg t="1758985751371" class="icon" viewBox="0 0 1024 1024" version="1.1" xmlns="http://www.w3.org/2000/svg" p-id="1554" xmlns:xlink="http://www.w3.org/1999/xlink" width="200" height="200"><path d="M640.853106 667.845375 640.853106 136.053319c0-75.141562-61.116502-136.053319-136.496934-136.053319s-136.496934 60.911757-136.496934 136.053319l0 531.792055c-41.802186 37.366036-68.248467 91.452946-68.248467 151.818715 0 112.712343 91.657691 204.028792 204.745401 204.028792 113.053586 0 204.745401-91.350573 204.745401-204.028792C709.101573 759.29832 682.655292 705.21141 640.853106 667.845375zM504.356172 989.705145c-94.251133 0-170.621168-76.131165-170.621168-170.041056 0-40.539589 14.844042-77.359637 38.594508-106.535857 8.838176-10.88563 18.802453-20.679286 30.029326-29.107971-0.034124-1.296721-0.375367-2.491069-0.375367-3.78779l0-37.16129L401.983471 136.053319c0-56.33911 45.828846-102.031458 102.372701-102.031458s102.372701 45.692349 102.372701 102.031458l0 507.051986 0 37.127166c0 1.296721-0.341242 2.525193-0.409491 3.821914 11.226873 8.394561 21.191149 18.188216 30.06345 29.107971 23.750467 29.17622 38.594508 65.962143 38.594508 106.501733C674.977339 913.57398 598.539056 989.705145 504.356172 989.705145z" p-id="1555"></path><path d="M559.63743 729.268995 559.63743 335.577713c0-28.254865-22.931485-51.18635-51.18635-51.18635s-51.18635 22.931485-51.18635 51.18635l0 389.289256c-32.691016 17.062117-55.247134 50.913356-55.247134 90.36097 0 56.543855 45.828846 102.372701 102.372701 102.372701 56.509731 0 102.372701-45.828846 102.372701-102.372701C606.728872 779.090376 587.92642 747.491336 559.63743 729.268995zM491.388963 335.577713c0-9.418288 7.643828-17.062117 17.062117-17.062117s17.062117 7.643828 17.062117 17.062117l0 151.921088-34.124234 0L491.388963 335.577713zM491.388963 521.623034l34.124234 0 0 22.385497-34.124234 0L491.388963 521.623034zM491.388963 578.166889l34.124234 0 0 22.419621-34.124234 0L491.388963 578.166889zM491.388963 634.710744l34.124234 0 0 22.385497-34.124234 0L491.388963 634.710744zM504.356172 883.510531c-37.673154 0-68.248467-30.575313-68.248467-68.248467 0-20.986404 9.657158-39.515862 24.603572-52.039456 8.872301-7.439083 19.450813-12.762463 31.291922-14.946414-0.204745-1.057851-0.64836-2.047454-0.64836-3.173554l0-30.882431 0-22.965609 34.124234 0 0 23.886963 0 29.961077c0 1.876833-0.511864 3.583045-1.057851 5.255132 11.295121 3.514796 21.395894 9.657158 29.312717 18.017595 11.636364 12.216476 18.870701 28.69848 18.870701 46.886697C572.604639 852.935217 542.06345 883.510531 504.356172 883.510531z" p-id="1556"></path></svg>