<?xml version="1.0" standalone="no"?><!DOCTYPE svg PUBLIC "-//W3C//DTD SVG 1.1//EN" "http://www.w3.org/Graphics/SVG/1.1/DTD/svg11.dtd"><svg t="1760150937281" class="icon" viewBox="0 0 1024 1024" version="1.1" xmlns="http://www.w3.org/2000/svg" p-id="11930" xmlns:xlink="http://www.w3.org/1999/xlink" width="200" height="200"><path d="M707.1232 624.64c-42.5984-18.0224-62.2592-88.2176-62.5152-89.088a15.36 15.36 0 1 0-29.6448 8.0384c0.9216 3.4816 23.7056 85.4528 80.2304 109.3632a15.36 15.36 0 0 0 11.9296-28.3136zM841.2672 781.7216a15.36 15.36 0 1 0-26.88 14.848l41.8304 75.8784a15.36 15.36 0 0 0 13.4656 7.9872 15.0528 15.0528 0 0 0 7.424-1.9456 15.36 15.36 0 0 0 6.0416-20.8384zM747.9296 780.032a15.36 15.36 0 0 0-15.36 15.36l-0.512 102.4a15.36 15.36 0 0 0 15.36 15.36 15.36 15.36 0 0 0 15.36-15.36l0.512-102.4a15.36 15.36 0 0 0-15.36-15.36zM977.92 767.1296l-87.04-54.2208a15.36 15.36 0 0 0-16.2304 26.0608l87.04 54.2208a15.36 15.36 0 0 0 8.0896 2.3552 15.36 15.36 0 0 0 8.1408-28.416zM302.08 474.88c-2.6624 2.5088-64.256 61.44-58.6752 122.3168a15.36 15.36 0 0 0 15.36 13.9776h1.3824a15.36 15.36 0 0 0 13.9264-16.64c-4.1984-46.08 48.384-96.4608 49.152-97.28A15.36 15.36 0 1 0 302.08 474.88zM193.8944 765.4912a15.36 15.36 0 0 0-21.248 4.5056l-47.2576 72.6528a15.36 15.36 0 1 0 25.6 16.7424l47.2576-72.6528a15.36 15.36 0 0 0-4.352-21.248zM155.904 703.5904a15.36 15.36 0 0 0-20.736-6.4l-90.5728 47.8208a15.36 15.36 0 0 0 7.2192 28.928 14.848 14.848 0 0 0 7.1168-1.792l90.5728-47.7696a15.36 15.36 0 0 0 6.4-20.7872zM268.3392 782.0288a15.36 15.36 0 0 0-16.384 14.2848l-6.912 102.144a15.36 15.36 0 0 0 14.2848 16.3328h1.024a15.36 15.36 0 0 0 15.36-14.336l6.9632-102.144a15.36 15.36 0 0 0-14.336-16.2816z" fill="#585858" p-id="11931"></path><path d="M741.5808 393.5232a58.112 58.112 0 0 0 3.1744-61.44l-2.9696-5.4272a58.5728 58.5728 0 0 0-79.4112-22.9888l-88.4224 48.7936q-21.504-17.1008-38.656-33.28c11.3152-12.0832 21.76-23.552 29.952-33.28 24.6272-29.0304 55.808-92.16 34.816-137.2672-9.1136-19.7632-31.8464-43.264-87.9616-43.264-43.9808 0-75.6736 18.5856-87.04 51.2-15.36 43.8272 9.472 102.4 67.1744 163.328-11.4176 11.776-22.9376 23.4496-33.536 34.048L385.6896 306.176a58.4704 58.4704 0 0 0-80.8448 17.152l-3.3792 5.12a58.4704 58.4704 0 0 0 3.2256 68.1472C237.568 442.0608 129.4336 548.5056 204.8 732.672a15.36 15.36 0 0 0 13.6704 9.728h14.7456c197.888 0 248.064-145.7664 260.6592-226.4576a57.8048 57.8048 0 0 0 40.96-10.8544h1.9456a56.9344 56.9344 0 0 0 10.24-1.024c8.3968 80.64 51.2 226.2528 249.344 246.4768h1.5872a15.36 15.36 0 0 0 13.2608-7.68c105.728-181.6576-2.7648-299.008-69.632-349.3376z m-64.3584-62.9248a27.7504 27.7504 0 0 1 37.632 10.8544l3.0208 5.4272a27.7504 27.7504 0 0 1-10.9056 37.6832l-145.8176 80.384v-0.4608a22.2208 22.2208 0 0 0 0.4608-2.6624c0-0.6656 0-1.3824 0.3072-2.048l0.3072-2.8672v-1.6896-7.2704c0-0.9216 0-1.792-0.3072-2.6624s0-1.792-0.4096-2.7136 0-1.2288-0.3072-1.8432-0.3584-1.2288-0.512-1.8432-0.4096-1.792-0.6656-2.6624-0.512-1.6896-0.8192-2.56l-0.768-1.9968c-0.6656-1.7408-1.4336-3.4304-2.2528-5.12l-0.5632-1.1776-1.4336-2.56-1.0752-1.6896-1.536-2.304-1.5872-2.0992c-0.7168-0.9216-1.4848-1.792-2.2528-2.6624l-2.2528-2.4576-1.4336-1.3824-2.6112-2.304a12.4416 12.4416 0 0 0-1.28-1.024l-0.4608-0.4096zM454.144 166.4512c9.216-26.4192 40.2432-30.3616 57.9584-30.3616 32.0512 0 52.2752 8.5504 60.1088 25.6 12.6976 27.4432-5.888 75.6224-30.4128 104.4992-7.7312 9.1648-17.5616 19.968-28.2624 31.4368C458.0352 238.3872 445.44 191.7952 454.144 166.4512z m59.9552 174.8992q14.3872 13.5168 30.72 27.136l-34.304 18.8928-25.6-16.5376c9.5232-9.3184 19.3536-19.3536 29.184-29.4912zM414.72 632.576C374.4768 685.1072 313.344 711.68 232.9088 711.68h-3.328C168.96 551.168 262.0416 459.5712 330.0352 416.768l113.7664 73.9328 20.48 13.5168c-4.7104 37.12-17.5104 86.6304-49.5616 128.3584zM485.5296 481.28L335.36 383.5904a27.8016 27.8016 0 0 1-8.1408-38.3488l3.3792-5.12a27.8016 27.8016 0 0 1 38.3488-8.1408L501.76 418.2528l17.3568 11.3152a26.112 26.112 0 0 1 4.3008 3.4816 7.2704 7.2704 0 0 1 0.6144 0.6656 32.4096 32.4096 0 0 1 2.9184 3.5328 27.904 27.904 0 0 1 4.1984 19.6096 2.0992 2.0992 0 0 1 0 0.5632 30.72 30.72 0 0 1-1.1264 4.096c0 0.3584 0 0.768-0.3584 1.1776a29.0304 29.0304 0 0 1-2.1504 4.1472l-0.4096 0.768-3.3792 5.12a27.4944 27.4944 0 0 1-2.8672 3.584c-0.4096 0.4096-0.768 0.8192-1.1776 1.1776a27.648 27.648 0 0 1-34.1504 3.7888z m304.2304 237.7216C619.52 696.9344 582.656 571.4944 576.8704 491.52l140.544-77.5168c30.4128 21.8624 68.0448 56.32 89.8048 104.3456 27.7504 61.0304 21.8624 128.512-17.4592 200.5504z" fill="#585858" p-id="11932"></path></svg>