<?xml version="1.0" standalone="no"?><!DOCTYPE svg PUBLIC "-//W3C//DTD SVG 1.1//EN" "http://www.w3.org/Graphics/SVG/1.1/DTD/svg11.dtd"><svg t="1760146394196" class="icon" viewBox="0 0 1024 1024" version="1.1" xmlns="http://www.w3.org/2000/svg" p-id="7085" xmlns:xlink="http://www.w3.org/1999/xlink" width="200" height="200"><path d="M512 814.08H128c-15.36 0-25.6-10.24-25.6-25.6V107.52c0-15.36 10.24-25.6 25.6-25.6H512c15.36 0 25.6 10.24 25.6 25.6v680.96c0 15.36-10.24 25.6-25.6 25.6z m-358.4-51.2h332.8V133.12H153.6v629.76z" fill="#262626" p-id="7086"></path><path d="M896 942.08H512c-15.36 0-25.6-10.24-25.6-25.6V235.52c0-15.36 10.24-25.6 25.6-25.6h384c15.36 0 25.6 10.24 25.6 25.6v680.96c0 15.36-10.24 25.6-25.6 25.6z m-358.4-51.2H870.4V261.12h-332.8v629.76zM286.72 558.08c-5.12 0-10.24 0-15.36-5.12-10.24-10.24-10.24-25.6 0-35.84l61.44-71.68-71.68-66.56c-10.24-10.24-10.24-25.6 0-35.84 10.24-10.24 25.6-10.24 35.84 0l87.04 81.92c10.24 10.24 10.24 25.6 0 35.84L307.2 552.96c-10.24 5.12-15.36 5.12-20.48 5.12z" fill="#262626" p-id="7087"></path><path d="M737.28 686.08c-5.12 0-15.36-5.12-20.48-10.24l-76.8-92.16c-10.24-10.24-10.24-25.6 0-35.84l87.04-81.92c10.24-10.24 25.6-10.24 35.84 0 10.24 10.24 10.24 25.6 0 35.84L696.32 563.2l61.44 71.68c10.24 10.24 10.24 25.6 0 35.84-5.12 15.36-10.24 15.36-20.48 15.36z" fill="#262626" p-id="7088"></path></svg>