<?xml version="1.0" standalone="no"?><!DOCTYPE svg PUBLIC "-//W3C//DTD SVG 1.1//EN" "http://www.w3.org/Graphics/SVG/1.1/DTD/svg11.dtd"><svg t="1758985979064" class="icon" viewBox="0 0 1024 1024" version="1.1" xmlns="http://www.w3.org/2000/svg" p-id="9055" xmlns:xlink="http://www.w3.org/1999/xlink" width="200" height="200"><path d="M19.504762 78.019048v682.666666h984.990476v-682.666666H19.504762z m887.466667 585.142857H117.028571v-487.619048h789.942858v487.619048zM199.92381 848.457143h619.27619v97.523809H199.92381z" p-id="9056"></path><path d="M360.838095 512H248.685714V287.695238H185.295238v277.942857h175.542857zM585.142857 512H472.990476V448.609524h92.647619V394.971429H472.990476V341.333333h107.276191V287.695238H404.72381v277.942857H585.142857zM824.07619 531.504762c24.380952-24.380952 39.009524-58.514286 39.009524-107.276191 0-48.761905-14.628571-82.895238-39.009524-102.4-24.380952-19.504762-58.514286-34.133333-102.4-34.133333h-78.019047v277.942857h82.895238c39.009524 0 73.142857-9.752381 97.523809-34.133333z m-117.028571-19.504762V341.333333h9.752381c24.380952 0 43.885714 4.87619 53.638095 19.504762 14.628571 14.628571 19.504762 34.133333 19.504762 68.266667s-4.87619 53.638095-19.504762 68.266667c-14.628571 14.628571-29.257143 19.504762-53.638095 19.504761h-9.752381z" p-id="9057"></path></svg>